<?xml version="1.0" standalone="no"?>
<!DOCTYPE svg PUBLIC "-//W3C//DTD SVG 20010904//EN"
 "http://www.w3.org/TR/2001/REC-SVG-20010904/DTD/svg10.dtd">
<svg version="1.0" xmlns="http://www.w3.org/2000/svg"
 width="435.000000pt" height="435.000000pt" viewBox="0 0 435.000000 435.000000"
 preserveAspectRatio="xMidYMid meet">
<metadata>
Created by potrace 1.11, written by Peter Selinger 2001-2013
</metadata>
<g transform="translate(0.000000,435.000000) scale(0.100000,-0.100000)"
fill="#000000" stroke="none">
<path d="M2038 4285 c-1 -1 -31 -6 -66 -9 -92 -10 -276 -58 -383 -102 -380
-154 -688 -453 -853 -830 -91 -207 -130 -397 -130 -634 0 -158 11 -249 51
-420 33 -143 110 -359 187 -522 20 -42 36 -79 36 -81 0 -7 -56 -1 -68 7 -6 3
-13 19 -17 35 l-6 30 -206 1 c-113 0 -209 3 -214 5 -4 3 -10 1 -13 -4 -4 -5
11 -22 31 -38 21 -15 43 -32 49 -38 6 -5 28 -23 49 -40 21 -16 47 -38 57 -47
10 -10 22 -18 26 -18 5 0 18 -10 29 -23 l21 -22 -43 -105 c-24 -58 -44 -109
-44 -115 -1 -6 60 -10 164 -10 91 0 165 -4 165 -8 0 -4 7 -21 15 -37 15 -28
27 -36 50 -30 11 3 141 3 153 0 4 -1 22 -2 41 -3 31 -2 40 -10 90 -82 53 -78
259 -351 284 -377 6 -7 32 -38 57 -68 51 -63 80 -95 210 -241 36 -40 141 -149
233 -241 144 -143 171 -166 184 -155 9 7 37 32 62 57 25 24 41 38 36 31 -5
-10 -4 -12 3 -7 7 4 12 13 12 21 0 8 5 17 12 21 7 5 8 2 3 -7 -4 -8 13 7 37
32 25 25 58 55 73 67 15 12 25 22 22 22 -3 0 6 13 21 28 15 15 30 27 34 25 4
-2 9 6 13 17 4 11 9 19 13 17 4 -2 15 4 25 15 9 10 15 18 13 18 -2 0 28 31 65
69 37 38 65 71 62 75 -4 3 1 6 10 6 10 0 17 4 17 8 0 4 15 24 33 43 73 80 97
109 90 109 -5 1 3 7 17 15 14 8 21 14 15 15 -5 0 1 7 13 16 12 8 22 19 22 24
0 5 11 21 25 36 14 15 36 41 48 57 12 16 30 36 39 45 9 9 15 19 12 24 -3 4 -1
8 4 8 5 0 22 19 38 42 16 23 37 50 47 60 9 10 17 25 17 33 0 7 6 18 13 22 8 4
26 27 42 50 15 23 36 45 47 49 31 9 98 11 98 2 0 -4 6 -5 14 -2 7 3 39 6 70 7
53 2 57 4 74 37 l17 35 157 0 c86 0 160 3 163 7 4 3 -7 39 -24 79 -17 41 -31
79 -31 86 0 7 -5 13 -11 13 -5 0 -8 4 -4 9 3 5 1 12 -5 16 -5 3 -10 10 -10 15
0 5 62 57 137 117 100 79 131 109 117 111 -11 2 -109 2 -219 0 l-200 -3 -16
-35 c-12 -25 -24 -35 -43 -37 -30 -2 -30 -3 -14 34 6 15 11 31 10 36 -1 4 2 7
8 7 5 0 10 5 10 11 0 5 12 36 26 67 37 80 95 242 86 242 -4 0 -2 4 4 8 13 9
58 161 50 169 -3 3 -2 11 3 17 8 10 19 57 36 151 19 106 25 346 12 460 -24
202 -66 343 -158 530 -175 353 -469 622 -844 770 -71 28 -254 77 -335 90 -45
7 -365 16 -372 10z"/>
</g>
</svg>
